<?xml version="1.0" encoding="UTF-8"?>
<svg id="Layer_2" data-name="Layer 2" xmlns="http://www.w3.org/2000/svg" xmlns:xlink="http://www.w3.org/1999/xlink" viewBox="0 0 900 137.62">
  <defs>
    <style>
      .cls-1 {
        fill: #ff6e71;
      }

      .cls-2 {
        fill: url(#linear-gradient);
      }
    </style>
    <linearGradient id="linear-gradient" x1="0" y1="68.35" x2="245.03" y2="68.35" gradientUnits="userSpaceOnUse">
      <stop offset="0" stop-color="#6916c8"/>
      <stop offset="1" stop-color="#117fff"/>
    </linearGradient>
  </defs>
  <g id="Layer_1-2" data-name="Layer 1">
    <g>
      <path class="cls-1" d="M.02,38.11h71.09L40.13.11H.02S.02,38.11.02,38.11Z"/>
      <polygon class="cls-2" points="245.03 26.94 245.03 26.94 218.11 .11 136.08 82.44 136.08 26.82 136.08 26.82 109.16 0 0 109.56 26.92 136.38 98.08 64.95 98.08 136.59 136.08 136.59 207.03 65.61 207.03 136.71 245.03 136.71 245.03 26.94 245.03 26.94"/>
      <path d="M300.12,136.66v-65.22h20.37l18.2,43.8h.32l18.12-43.8h20.29v65.22h-15.14v-43.32h-.32l-17.15,43.32h-13.04l-17.15-43.32h-.32v43.32h-14.17ZM438.64,136.66h-48.31v-65.22h48.31v13.21h-33.18v11.76h30.28v12.88h-30.28v14.17h33.18v13.21ZM511.92,136.66h-16.02l-31.97-42.68h-.32v42.68h-14.49v-65.22h15.38l32.61,43.88h.32v-43.88h14.49v65.22ZM555.56,136.66h-14.82v-52.02h-20.45v-13.21h55.72v13.21h-20.45v52.02ZM610.13,137.62c-6.71,0-12.59-1.37-17.64-4.11-4.99-2.79-8.88-6.68-11.67-11.68-2.79-5.05-4.18-10.98-4.18-17.8s1.39-12.8,4.18-17.8c2.79-5.05,6.68-8.94,11.67-11.68,5.05-2.74,10.93-4.11,17.64-4.11s12.64,1.37,17.63,4.11c5.04,2.68,8.94,6.55,11.67,11.6,2.79,4.99,4.19,10.95,4.19,17.88s-1.4,12.75-4.19,17.8c-2.79,5.05-6.71,8.94-11.76,11.68-4.99,2.74-10.84,4.11-17.55,4.11ZM610.2,124.42c5.85,0,10.36-1.85,13.53-5.56,3.17-3.7,4.75-8.64,4.75-14.82s-1.59-11.17-4.75-14.82c-3.17-3.7-7.7-5.56-13.61-5.56s-10.39,1.85-13.61,5.56c-3.17,3.65-4.75,8.56-4.75,14.74s1.59,11.19,4.75,14.9c3.22,3.7,7.78,5.56,13.69,5.56ZM653.6,136.66v-65.22h34.62c7.03,0,12.53,1.58,16.51,4.75,4.03,3.17,6.04,7.49,6.04,12.96,0,3.65-.88,6.74-2.66,9.26-1.72,2.47-4.08,4.16-7.09,5.07v.32c3.11,0,5.51.86,7.17,2.58,1.72,1.66,2.58,4.19,2.58,7.57v22.71h-15.14v-24.16h-26.89v24.16h-15.14ZM668.74,99.29h18.52c2.79,0,4.94-.64,6.44-1.93,1.5-1.29,2.25-3.09,2.25-5.39s-.75-4.16-2.25-5.4c-1.5-1.29-3.65-1.93-6.44-1.93h-18.52v14.66ZM723.34,136.66v-65.22h15.14v65.22h-15.14ZM780.58,137.62c-5.85,0-11.01-.89-15.46-2.66-4.4-1.82-7.84-4.62-10.31-8.37-2.42-3.76-3.63-8.62-3.63-14.57v-40.58h15.46v38.17c0,4.29,1.13,7.68,3.38,10.15,2.25,2.47,5.9,3.7,10.95,3.7s8.88-1.32,11.03-3.95c2.2-2.63,3.3-5.9,3.3-9.82v-38.25h15.14v40.74c0,8.54-2.66,14.92-7.98,19.16-5.31,4.19-12.61,6.28-21.9,6.28ZM822.7,136.66v-65.22h20.38l18.19,43.8h.33l18.11-43.8h20.29v65.22h-15.14v-43.32h-.32l-17.15,43.32h-13.04l-17.15-43.32h-.32v43.32h-14.17Z"/>
    </g>
  </g>
</svg>